<svg width="22" height="24" viewBox="0 0 22 24" fill="none" xmlns="http://www.w3.org/2000/svg">
<path d="M0.75 2C0.75 1.30964 1.30964 0.75 2 0.75H15.5569C15.8889 0.75 16.2072 0.882057 16.4417 1.11705L18.3767 3.05609L20.3134 4.99687C20.5472 5.23122 20.6786 5.54876 20.6786 5.87983V22C20.6786 22.6904 20.1189 23.25 19.4286 23.25H2C1.30964 23.25 0.75 22.6904 0.75 22V2Z" stroke="#1D1D1D" stroke-width="1.5"/>
<path d="M15.9287 1.20711L20.2216 5.5L15.9287 5.5L15.9287 1.20711Z" fill="#59626B" stroke="#1D1D1D"/>
<rect x="0.5" y="8.21484" width="20.4286" height="5" fill="#59626B" stroke="#1D1D1D"/>
<path d="M7.52569 12.7748C7.16902 12.7748 6.84569 12.6982 6.55569 12.5448C6.26902 12.3882 6.04235 12.1732 5.87569 11.8998C5.71235 11.6232 5.63069 11.3115 5.63069 10.9648C5.63069 10.6182 5.71235 10.3082 5.87569 10.0348C6.04235 9.75818 6.26902 9.54318 6.55569 9.38984C6.84569 9.23318 7.17069 9.15484 7.53069 9.15484C7.83402 9.15484 8.10735 9.20818 8.35069 9.31484C8.59735 9.42151 8.80402 9.57484 8.97069 9.77484L8.45069 10.2548C8.21402 9.98151 7.92069 9.84484 7.57069 9.84484C7.35402 9.84484 7.16069 9.89318 6.99069 9.98984C6.82069 10.0832 6.68735 10.2148 6.59069 10.3848C6.49735 10.5548 6.45069 10.7482 6.45069 10.9648C6.45069 11.1815 6.49735 11.3748 6.59069 11.5448C6.68735 11.7148 6.82069 11.8482 6.99069 11.9448C7.16069 12.0382 7.35402 12.0848 7.57069 12.0848C7.92069 12.0848 8.21402 11.9465 8.45069 11.6698L8.97069 12.1498C8.80402 12.3532 8.59735 12.5082 8.35069 12.6148C8.10402 12.7215 7.82902 12.7748 7.52569 12.7748ZM10.6384 12.7748C10.3617 12.7748 10.0934 12.7382 9.83338 12.6648C9.57672 12.5882 9.37005 12.4898 9.21338 12.3698L9.48838 11.7598C9.63838 11.8698 9.81672 11.9582 10.0234 12.0248C10.23 12.0915 10.4367 12.1248 10.6434 12.1248C10.8734 12.1248 11.0434 12.0915 11.1534 12.0248C11.2634 11.9548 11.3184 11.8632 11.3184 11.7498C11.3184 11.6665 11.285 11.5982 11.2184 11.5448C11.155 11.4882 11.0717 11.4432 10.9684 11.4098C10.8684 11.3765 10.7317 11.3398 10.5584 11.2998C10.2917 11.2365 10.0734 11.1732 9.90338 11.1098C9.73338 11.0465 9.58672 10.9448 9.46338 10.8048C9.34338 10.6648 9.28338 10.4782 9.28338 10.2448C9.28338 10.0415 9.33838 9.85818 9.44838 9.69484C9.55838 9.52818 9.72338 9.39651 9.94338 9.29984C10.1667 9.20318 10.4384 9.15484 10.7584 9.15484C10.9817 9.15484 11.2 9.18151 11.4134 9.23484C11.6267 9.28818 11.8134 9.36484 11.9734 9.46484L11.7234 10.0798C11.4 9.89651 11.0767 9.80484 10.7534 9.80484C10.5267 9.80484 10.3584 9.84151 10.2484 9.91484C10.1417 9.98818 10.0884 10.0848 10.0884 10.2048C10.0884 10.3248 10.15 10.4148 10.2734 10.4748C10.4 10.5315 10.5917 10.5882 10.8484 10.6448C11.115 10.7082 11.3334 10.7715 11.5034 10.8348C11.6734 10.8982 11.8184 10.9982 11.9384 11.1348C12.0617 11.2715 12.1234 11.4565 12.1234 11.6898C12.1234 11.8898 12.0667 12.0732 11.9534 12.2398C11.8434 12.4032 11.6767 12.5332 11.4534 12.6298C11.23 12.7265 10.9584 12.7748 10.6384 12.7748ZM16.0419 9.21484L14.5269 12.7148H13.7269L12.2169 9.21484H13.0919L14.1569 11.7148L15.2369 9.21484H16.0419Z" fill="#FFFBFB"/>
<path d="M6.55569 12.5448L6.07607 13.4224L6.08827 13.4289L6.55569 12.5448ZM5.87569 11.8998L5.01455 12.4082L5.01818 12.4144L5.02189 12.4205L5.87569 11.8998ZM5.87569 10.0348L5.0191 9.51883L5.01727 9.52189L5.87569 10.0348ZM6.55569 9.38984L7.02734 10.2716L7.03099 10.2697L6.55569 9.38984ZM8.35069 9.31484L7.9492 10.2307L7.95378 10.2327L8.35069 9.31484ZM8.97069 9.77484L9.64897 10.5096L10.3474 9.8649L9.73891 9.13466L8.97069 9.77484ZM8.45069 10.2548L7.69469 10.9094L8.37042 11.6898L9.12897 10.9896L8.45069 10.2548ZM6.99069 9.98984L7.47195 10.8664L7.47849 10.8628L7.48499 10.8591L6.99069 9.98984ZM6.59069 10.3848L5.7214 9.89054L5.7177 9.89704L5.71411 9.90358L6.59069 10.3848ZM6.59069 11.5448L5.71411 12.0261L5.7177 12.0327L5.7214 12.0391L6.59069 11.5448ZM6.99069 11.9448L6.49638 12.8141L6.50288 12.8178L6.50943 12.8214L6.99069 11.9448ZM8.45069 11.6698L9.12897 10.935L8.36586 10.2306L7.69078 11.0198L8.45069 11.6698ZM8.97069 12.1498L9.74408 12.7838L10.3418 12.0546L9.64897 11.415L8.97069 12.1498ZM8.35069 12.6148L7.95378 11.697L8.35069 12.6148ZM7.52569 11.7748C7.3174 11.7748 7.15674 11.7315 7.02311 11.6608L6.08827 13.4289C6.53463 13.6649 7.02064 13.7748 7.52569 13.7748V11.7748ZM7.03525 11.6673C6.89917 11.593 6.80292 11.4997 6.72948 11.3792L5.02189 12.4205C5.28179 12.8467 5.63887 13.1834 6.07612 13.4223L7.03525 11.6673ZM6.73682 11.3915C6.67155 11.2809 6.63069 11.1473 6.63069 10.9648H4.63069C4.63069 11.4757 4.75315 11.9654 5.01455 12.4082L6.73682 11.3915ZM6.63069 10.9648C6.63069 10.7823 6.67157 10.6524 6.7341 10.5478L5.01727 9.52189C4.75314 9.96391 4.63069 10.4541 4.63069 10.9648H6.63069ZM6.73227 10.5509C6.80529 10.4296 6.89851 10.3405 7.02734 10.2716L6.08403 8.50806C5.63953 8.74581 5.27941 9.08672 5.01911 9.51883L6.73227 10.5509ZM7.03099 10.2697C7.1618 10.199 7.32098 10.1548 7.53069 10.1548V8.15484C7.02039 8.15484 6.52957 8.26736 6.08038 8.51002L7.03099 10.2697ZM7.53069 10.1548C7.71533 10.1548 7.84918 10.1869 7.94921 10.2307L8.75216 8.39897C8.36553 8.22949 7.95271 8.15484 7.53069 8.15484V10.1548ZM7.95378 10.2327C8.06143 10.2793 8.1394 10.3393 8.20247 10.415L9.73891 9.13466C9.46864 8.81034 9.13328 8.56377 8.7476 8.39699L7.95378 10.2327ZM8.29241 9.04004L7.77241 9.52004L9.12897 10.9896L9.64897 10.5096L8.29241 9.04004ZM9.20668 9.60026C8.78725 9.11585 8.22165 8.84484 7.57069 8.84484V10.8448C7.61186 10.8448 7.62699 10.852 7.63087 10.8538C7.63558 10.856 7.65774 10.8667 7.69469 10.9094L9.20668 9.60026ZM7.57069 8.84484C7.19986 8.84484 6.83286 8.92923 6.49638 9.12055L7.48499 10.8591C7.48852 10.8571 7.50818 10.8448 7.57069 10.8448V8.84484ZM6.50943 9.11327C6.17577 9.29645 5.90873 9.56109 5.7214 9.89054L7.45998 10.8791C7.46268 10.8744 7.46454 10.8718 7.46529 10.8708C7.46603 10.8699 7.46619 10.8698 7.46583 10.8701C7.46547 10.8705 7.46535 10.8705 7.46582 10.8702C7.46631 10.8698 7.46816 10.8685 7.47195 10.8664L6.50943 9.11327ZM5.71411 9.90358C5.53066 10.2377 5.45069 10.6 5.45069 10.9648H7.45069C7.45069 10.8963 7.46405 10.872 7.46727 10.8661L5.71411 9.90358ZM5.45069 10.9648C5.45069 11.3297 5.53066 11.692 5.71411 12.0261L7.46727 11.0636C7.46405 11.0577 7.45069 11.0333 7.45069 10.9648H5.45069ZM5.7214 12.0391C5.90703 12.3656 6.16992 12.6285 6.49638 12.8141L7.48499 11.0756C7.47497 11.0699 7.47129 11.0662 7.47029 11.0652C7.4693 11.0642 7.46568 11.0606 7.45998 11.0505L5.7214 12.0391ZM6.50943 12.8214C6.84356 13.0049 7.20585 13.0848 7.57069 13.0848V11.0848C7.50219 11.0848 7.47781 11.0715 7.47195 11.0683L6.50943 12.8214ZM7.57069 13.0848C8.22616 13.0848 8.79269 12.8084 9.21059 12.3199L7.69078 11.0198C7.65304 11.0639 7.63062 11.0748 7.62665 11.0766C7.62372 11.078 7.61008 11.0848 7.57069 11.0848V13.0848ZM7.77241 12.4046L8.29241 12.8846L9.64897 11.415L9.12897 10.935L7.77241 12.4046ZM8.19729 11.5159C8.134 11.5931 8.05748 11.6521 7.95378 11.697L8.7476 13.5327C9.13723 13.3642 9.47404 13.1132 9.74408 12.7838L8.19729 11.5159ZM7.95378 11.697C7.84758 11.7429 7.71005 11.7748 7.52569 11.7748V13.7748C7.94799 13.7748 8.36046 13.7001 8.7476 13.5327L7.95378 11.697ZM9.83338 12.6648L9.54718 13.623L9.55453 13.6252L9.56192 13.6273L9.83338 12.6648ZM9.21338 12.3698L8.30174 11.9589L7.9759 12.6816L8.6053 13.1637L9.21338 12.3698ZM9.48838 11.7598L10.0797 10.9534L9.08415 10.2233L8.57674 11.3489L9.48838 11.7598ZM10.0234 12.0248L10.3304 11.0731L10.0234 12.0248ZM11.1534 12.0248L11.6717 12.88L11.681 12.8744L11.6903 12.8685L11.1534 12.0248ZM11.2184 11.5448L10.5516 12.2901L10.5721 12.3085L10.5937 12.3257L11.2184 11.5448ZM10.9684 11.4098L10.6521 12.3586L10.6614 12.3616L10.9684 11.4098ZM10.5584 11.2998L10.3273 12.2728L10.3335 12.2742L10.5584 11.2998ZM9.90338 11.1098L10.2525 10.1728L9.90338 11.1098ZM9.46338 10.8048L8.70406 11.4557L8.71302 11.4659L9.46338 10.8048ZM9.44838 9.69484L10.2779 10.2535L10.283 10.2457L9.44838 9.69484ZM9.94338 9.29984L9.54615 8.38211L9.54111 8.38432L9.94338 9.29984ZM11.4134 9.23484L11.6559 8.2647L11.6559 8.2647L11.4134 9.23484ZM11.9734 9.46484L12.8998 9.84142L13.2164 9.06249L12.5034 8.61684L11.9734 9.46484ZM11.7234 10.0798L11.2301 10.9497L12.2209 11.5115L12.6498 10.4564L11.7234 10.0798ZM10.2484 9.91484L9.69368 9.08279L9.68774 9.08676L9.68185 9.0908L10.2484 9.91484ZM10.2734 10.4748L9.83592 11.3741L9.85036 11.3811L9.86502 11.3877L10.2734 10.4748ZM10.8484 10.6448L11.0795 9.67191L11.0717 9.67007L11.064 9.66836L10.8484 10.6448ZM11.5034 10.8348L11.8525 9.89776H11.8525L11.5034 10.8348ZM11.9384 11.1348L11.1869 11.7947L11.196 11.8048L11.9384 11.1348ZM11.9534 12.2398L11.1264 11.6775L11.1239 11.6812L11.9534 12.2398ZM11.4534 12.6298L11.0562 11.7121V11.7121L11.4534 12.6298ZM10.6384 11.7748C10.4513 11.7748 10.2744 11.7502 10.1048 11.7024L9.56192 13.6273C9.91238 13.7261 10.2722 13.7748 10.6384 13.7748V11.7748ZM10.1196 11.7067C9.94039 11.6532 9.85401 11.6009 9.82146 11.576L8.6053 13.1637C8.88609 13.3788 9.21304 13.5232 9.54718 13.623L10.1196 11.7067ZM10.125 12.7808L10.4 12.1708L8.57674 11.3489L8.30174 11.9589L10.125 12.7808ZM8.89702 12.5662C9.14649 12.7492 9.42443 12.8824 9.71638 12.9766L10.3304 11.0731C10.209 11.034 10.1303 10.9905 10.0797 10.9534L8.89702 12.5662ZM9.71638 12.9766C10.0172 13.0736 10.3273 13.1248 10.6434 13.1248V11.1248C10.5461 11.1248 10.4429 11.1094 10.3304 11.0731L9.71638 12.9766ZM10.6434 13.1248C10.9318 13.1248 11.3253 13.0899 11.6717 12.88L10.6351 11.1696C10.6732 11.1465 10.7044 11.1336 10.7233 11.1269C10.7421 11.1201 10.7524 11.1183 10.751 11.1185C10.7497 11.1188 10.7405 11.1205 10.7216 11.122C10.7028 11.1236 10.6771 11.1248 10.6434 11.1248V13.1248ZM11.6903 12.8685C12.0377 12.6474 12.3184 12.2614 12.3184 11.7498H10.3184C10.3184 11.6366 10.3482 11.5081 10.4196 11.3891C10.4877 11.2757 10.5689 11.2115 10.6165 11.1812L11.6903 12.8685ZM12.3184 11.7498C12.3184 11.3542 12.1402 11.0017 11.8431 10.764L10.5937 12.3257C10.5257 12.2714 10.4504 12.1889 10.3946 12.0745C10.3385 11.9594 10.3184 11.8453 10.3184 11.7498H12.3184ZM11.8852 10.7996C11.693 10.6277 11.4762 10.5229 11.2754 10.4581L10.6614 12.3616C10.6672 12.3634 10.6171 12.3487 10.5516 12.2901L11.8852 10.7996ZM11.2846 10.4612C11.1412 10.4133 10.9696 10.3685 10.7832 10.3255L10.3335 12.2742C10.4938 12.3112 10.5956 12.3397 10.6522 12.3585L11.2846 10.4612ZM10.7895 10.3269C10.5448 10.2688 10.3698 10.2165 10.2525 10.1728L9.55427 12.0469C9.77698 12.1299 10.0386 12.2042 10.3273 12.2728L10.7895 10.3269ZM10.2525 10.1728C10.2415 10.1686 10.2313 10.1638 10.2137 10.1438L8.71302 11.4659C8.94209 11.7259 9.22531 11.9244 9.55427 12.0469L10.2525 10.1728ZM10.2226 10.1541C10.2546 10.1913 10.2723 10.2287 10.2804 10.2538C10.2876 10.2761 10.2834 10.2768 10.2834 10.2448H8.28338C8.28338 10.6517 8.39106 11.0904 8.70413 11.4556L10.2226 10.1541ZM10.2834 10.2448C10.2834 10.2392 10.2838 10.2367 10.2837 10.2369C10.2837 10.2372 10.2834 10.2391 10.2825 10.2422C10.2815 10.2453 10.2803 10.2483 10.2791 10.2509C10.2779 10.2534 10.2773 10.2543 10.2778 10.2534L8.61894 9.13624C8.39399 9.47027 8.28338 9.84936 8.28338 10.2448H10.2834ZM10.283 10.2457C10.277 10.2547 10.2731 10.2569 10.2784 10.2527C10.2846 10.2478 10.3042 10.2336 10.3457 10.2154L9.54111 8.38432C9.18112 8.5425 8.84965 8.7866 8.61377 9.144L10.283 10.2457ZM10.3406 10.2176C10.4057 10.1894 10.5341 10.1548 10.7584 10.1548V8.15484C10.3427 8.15484 9.92769 8.21698 9.54616 8.38212L10.3406 10.2176ZM10.7584 10.1548C10.9012 10.1548 11.0381 10.1718 11.1708 10.205L11.6559 8.2647C11.362 8.19123 11.0622 8.15484 10.7584 8.15484V10.1548ZM11.1708 10.205C11.299 10.237 11.3855 10.2767 11.4434 10.3128L12.5034 8.61684C12.2412 8.45301 11.9545 8.33934 11.6559 8.2647L11.1708 10.205ZM11.047 9.08826L10.797 9.70326L12.6498 10.4564L12.8998 9.84142L11.047 9.08826ZM12.2166 9.20995C11.7657 8.95425 11.274 8.80484 10.7534 8.80484V10.8048C10.8794 10.8048 11.0344 10.8388 11.2301 10.9497L12.2166 9.20995ZM10.7534 8.80484C10.4545 8.80484 10.0479 8.84662 9.69368 9.08279L10.8031 10.7469C10.7647 10.7725 10.7318 10.7879 10.7094 10.7967C10.6871 10.8055 10.6729 10.8088 10.67 10.8094C10.6669 10.8101 10.6719 10.8088 10.6867 10.8074C10.7014 10.8061 10.7233 10.8048 10.7534 10.8048V8.80484ZM9.68185 9.0908C9.32902 9.33338 9.08838 9.72612 9.08838 10.2048H11.0884C11.0884 10.2987 11.0659 10.4132 11.004 10.5254C10.9436 10.6348 10.8677 10.7026 10.8149 10.7389L9.68185 9.0908ZM9.08838 10.2048C9.08838 10.4455 9.15348 10.6996 9.3097 10.9276C9.46069 11.1479 9.65781 11.2874 9.83592 11.3741L10.7108 9.57561C10.7656 9.60225 10.8702 9.66674 10.9596 9.79711C11.0541 9.93511 11.0884 10.0841 11.0884 10.2048H9.08838ZM9.86502 11.3877C10.0862 11.4866 10.3575 11.5605 10.6328 11.6213L11.064 9.66836C10.8259 9.61581 10.7139 9.5764 10.6817 9.56203L9.86502 11.3877ZM10.6173 11.6178C10.8619 11.6759 11.037 11.7282 11.1543 11.7719L11.8525 9.89776C11.6298 9.81479 11.3682 9.74048 11.0795 9.67191L10.6173 11.6178ZM11.1543 11.7719C11.1689 11.7774 11.1758 11.7819 11.1869 11.7946L12.6898 10.475C12.461 10.2144 12.1779 10.019 11.8525 9.89776L11.1543 11.7719ZM11.196 11.8048C11.1598 11.7647 11.1386 11.7228 11.1284 11.6923C11.1194 11.6651 11.1234 11.6602 11.1234 11.6898H13.1234C13.1234 11.2776 13.0107 10.8305 12.6808 10.4649L11.196 11.8048ZM11.1234 11.6898C11.1234 11.6925 11.1232 11.6925 11.1235 11.6905C11.1238 11.6884 11.1244 11.6854 11.1255 11.682C11.1265 11.6787 11.1276 11.6761 11.1282 11.6748C11.1289 11.6735 11.1286 11.6744 11.1265 11.6775L12.7803 12.8022C13.0055 12.471 13.1234 12.092 13.1234 11.6898H11.1234ZM11.1239 11.6812C11.132 11.6693 11.1371 11.6664 11.1309 11.6713C11.1235 11.677 11.1015 11.6925 11.0562 11.7121L11.8506 13.5476C12.2079 13.3929 12.5433 13.154 12.7828 12.7984L11.1239 11.6812ZM11.0562 11.7121C10.991 11.7403 10.8627 11.7748 10.6384 11.7748V13.7748C11.0541 13.7748 11.4691 13.7127 11.8506 13.5476L11.0562 11.7121ZM16.0419 9.21484L16.9596 9.61208L17.5644 8.21484H16.0419V9.21484ZM14.5269 12.7148V13.7148H15.1837L15.4446 13.1121L14.5269 12.7148ZM13.7269 12.7148L12.8087 13.111L13.0692 13.7148H13.7269V12.7148ZM12.2169 9.21484V8.21484H10.6963L11.2987 9.61098L12.2169 9.21484ZM13.0919 9.21484L14.0119 8.82292L13.7528 8.21484H13.0919V9.21484ZM14.1569 11.7148L13.2369 12.1068L14.1504 14.2513L15.0749 12.1114L14.1569 11.7148ZM15.2369 9.21484V8.21484H14.5795L14.3189 8.81827L15.2369 9.21484ZM15.1241 8.8176L13.6091 12.3176L15.4446 13.1121L16.9596 9.61208L15.1241 8.8176ZM14.5269 11.7148H13.7269V13.7148H14.5269V11.7148ZM14.6451 12.3187L13.1351 8.81871L11.2987 9.61098L12.8087 13.111L14.6451 12.3187ZM12.2169 10.2148H13.0919V8.21484H12.2169V10.2148ZM12.1719 9.60676L13.2369 12.1068L15.0769 11.3229L14.0119 8.82292L12.1719 9.60676ZM15.0749 12.1114L16.1549 9.61142L14.3189 8.81827L13.2389 11.3183L15.0749 12.1114ZM15.2369 10.2148H16.0419V8.21484H15.2369V10.2148Z" fill="#1D1D1D"/>
<mask id="path-6-inside-1" fill="white">
<path fill-rule="evenodd" clip-rule="evenodd" d="M11.1144 15.1758C10.6455 15.1758 10.2653 15.5559 10.2653 16.0249V18.1466H9.18891C8.77399 18.1466 8.53961 18.6228 8.79271 18.9516L10.7182 21.453C10.9184 21.713 11.3105 21.713 11.5106 21.453L13.4361 18.9516C13.6892 18.6228 13.4549 18.1466 13.0399 18.1466H11.9636V16.0249C11.9636 15.5559 11.5834 15.1758 11.1144 15.1758Z"/>
</mask>
<path fill-rule="evenodd" clip-rule="evenodd" d="M11.1144 15.1758C10.6455 15.1758 10.2653 15.5559 10.2653 16.0249V18.1466H9.18891C8.77399 18.1466 8.53961 18.6228 8.79271 18.9516L10.7182 21.453C10.9184 21.713 11.3105 21.713 11.5106 21.453L13.4361 18.9516C13.6892 18.6228 13.4549 18.1466 13.0399 18.1466H11.9636V16.0249C11.9636 15.5559 11.5834 15.1758 11.1144 15.1758Z" fill="#59626B"/>
<path d="M10.2653 18.1466V19.1466H11.2653V18.1466H10.2653ZM8.79271 18.9516L8.0003 19.5616H8.0003L8.79271 18.9516ZM10.7182 21.453L11.5106 20.843L11.5106 20.843L10.7182 21.453ZM11.5106 21.453L12.303 22.0629L12.303 22.0629L11.5106 21.453ZM13.4361 18.9516L14.2286 19.5616H14.2286L13.4361 18.9516ZM11.9636 18.1466H10.9636V19.1466H11.9636V18.1466ZM11.2653 16.0249C11.2653 16.1082 11.1978 16.1758 11.1144 16.1758V14.1758C10.0932 14.1758 9.26534 15.0037 9.26534 16.0249H11.2653ZM11.2653 18.1466V16.0249H9.26534V18.1466H11.2653ZM9.18891 19.1466H10.2653V17.1466H9.18891V19.1466ZM9.58511 18.3416C9.83821 18.6704 9.60383 19.1466 9.18891 19.1466V17.1466C7.94415 17.1466 7.24101 18.5753 8.0003 19.5616L9.58511 18.3416ZM11.5106 20.843L9.58511 18.3416L8.0003 19.5616L9.92582 22.0629L11.5106 20.843ZM10.7182 20.843C10.9184 20.583 11.3105 20.583 11.5106 20.843L9.92582 22.0629C10.5263 22.843 11.7026 22.843 12.303 22.0629L10.7182 20.843ZM12.6437 18.3416L10.7182 20.843L12.303 22.0629L14.2286 19.5616L12.6437 18.3416ZM13.0399 19.1466C12.625 19.1466 12.3906 18.6704 12.6437 18.3416L14.2286 19.5616C14.9879 18.5753 14.2847 17.1466 13.0399 17.1466V19.1466ZM11.9636 19.1466H13.0399V17.1466H11.9636V19.1466ZM10.9636 16.0249V18.1466H12.9636V16.0249H10.9636ZM11.1144 16.1758C11.0311 16.1758 10.9636 16.1082 10.9636 16.0249H12.9636C12.9636 15.0037 12.1357 14.1758 11.1144 14.1758V16.1758Z" fill="#1D1D1D" mask="url(#path-6-inside-1)"/>
</svg>
