<svg width="29" height="22" viewBox="0 0 29 22" fill="none" xmlns="http://www.w3.org/2000/svg">
<path fill-rule="evenodd" clip-rule="evenodd" d="M0.682843 0.117959C0.430857 -0.134027 0 0.0444413 0 0.400803V8.12882C0 8.34973 0.179086 8.52882 0.4 8.52882H8.12802C8.48438 8.52882 8.66285 8.09796 8.41086 7.84598L6.63419 6.0693C8.17464 5.51729 9.81092 5.22873 11.4701 5.2253C14.2507 5.21955 16.9707 6.01492 19.286 7.51084C21.6013 9.00677 23.408 11.1361 24.4776 13.6294C25.317 15.5863 25.6728 17.6985 25.5276 19.7982C25.4617 20.7523 26.062 21.6653 27.0015 21.8448C27.9265 22.0216 28.831 21.4208 28.9223 20.4835C29.1914 17.7189 28.76 14.923 27.6536 12.3438C26.3223 9.24016 24.0734 6.58977 21.1915 4.72775C18.3095 2.86572 14.9239 1.87569 11.4627 1.88285C8.89288 1.88817 6.36709 2.44304 4.06037 3.49548L0.682843 0.117959Z" fill="#C2C2C2"/>
</svg>
