<svg width="18" height="17" viewBox="0 0 18 17" fill="none" xmlns="http://www.w3.org/2000/svg">
<circle cx="8.92871" cy="8.5" r="8" stroke="#59626B"/>
<path d="M8.24237 10.4922C8.24237 9.97266 8.30683 9.55859 8.43573 9.25C8.56464 8.94141 8.81855 8.60352 9.19745 8.23633C9.58027 7.86523 9.82245 7.60156 9.92402 7.44531C10.0803 7.20703 10.1584 6.94922 10.1584 6.67188C10.1584 6.30469 10.0666 6.02539 9.883 5.83398C9.70331 5.63867 9.43769 5.54102 9.08612 5.54102C8.75019 5.54102 8.4787 5.63672 8.27167 5.82812C8.06855 6.01562 7.96698 6.27148 7.96698 6.5957H6.54316C6.55097 5.9043 6.78534 5.35742 7.24628 4.95508C7.71112 4.55273 8.32441 4.35156 9.08612 4.35156C9.87128 4.35156 10.4826 4.55078 10.9201 4.94922C11.3615 5.34766 11.5822 5.9043 11.5822 6.61914C11.5822 7.25586 11.2853 7.88281 10.6916 8.5L9.97089 9.20898C9.71308 9.50195 9.58027 9.92969 9.57245 10.4922H8.24237ZM8.14277 12.3145C8.14277 12.084 8.21503 11.8984 8.35956 11.7578C8.50409 11.6133 8.69941 11.541 8.9455 11.541C9.1955 11.541 9.39277 11.6152 9.5373 11.7637C9.68183 11.9082 9.75409 12.0918 9.75409 12.3145C9.75409 12.5293 9.68378 12.709 9.54316 12.8535C9.40253 12.998 9.20331 13.0703 8.9455 13.0703C8.68769 13.0703 8.48847 12.998 8.34784 12.8535C8.21112 12.709 8.14277 12.5293 8.14277 12.3145Z" fill="#59626B"/>
</svg>
